<?xml version="1.0" standalone="no"?>
<!DOCTYPE svg PUBLIC "-//W3C//DTD SVG 20010904//EN"
 "http://www.w3.org/TR/2001/REC-SVG-20010904/DTD/svg10.dtd">
<svg version="1.0" xmlns="http://www.w3.org/2000/svg"
 width="225.000000pt" height="225.000000pt" viewBox="0 0 225.000000 225.000000"
 preserveAspectRatio="xMidYMid meet">

<g transform="translate(0.000000,225.000000) scale(0.100000,-0.100000)"
fill="#000000" stroke="none">
<path d="M935 2235 c-639 -120 -1045 -728 -905 -1357 48 -218 156 -406 326
-568 170 -162 372 -261 604 -296 539 -81 1064 242 1233 761 202 617 -157 1274
-788 1440 -128 34 -346 43 -470 20z m93 -233 c4 -36 -14 -44 -21 -9 -4 19 -4
18 -6 -5 -1 -27 -21 -41 -21 -15 0 6 -3 22 -6 34 -4 15 -1 22 13 26 30 8 38 2
41 -31z m62 18 c0 -11 -4 -20 -10 -20 -5 0 -10 -7 -10 -15 0 -8 -7 -15 -15
-15 -10 0 -15 11 -15 35 0 31 3 35 25 35 18 0 25 -5 25 -20z m65 -15 c0 -25
-4 -30 -25 -30 -16 0 -26 6 -28 18 -6 30 6 49 30 45 18 -2 23 -9 23 -33z m68
2 c-7 -40 -12 -45 -23 -27 -7 10 -10 11 -10 3 0 -7 -4 -13 -10 -13 -5 0 -10
15 -10 33 0 31 3 34 30 35 28 1 29 -1 23 -31z m61 -10 c-9 -32 -20 -41 -41
-32 -15 6 -16 8 -3 14 17 7 23 41 8 41 -5 0 -6 5 -3 10 4 7 13 6 26 -1 15 -7
18 -16 13 -32z m60 4 c-1 -6 -2 -20 -2 -31 -1 -13 -9 -20 -21 -20 -26 0 -34
14 -26 50 5 25 9 28 28 21 12 -5 22 -13 21 -20z m-434 4 c-8 -10 -9 -15 -2
-15 6 0 9 -7 6 -15 -4 -9 0 -15 7 -15 11 0 11 -3 -1 -10 -22 -14 -30 -12 -31
8 0 13 -2 12 -9 -5 -13 -32 -46 -30 -54 2 -4 14 -4 30 -1 35 9 14 45 12 46 -2
0 -7 4 -3 9 10 5 12 17 22 26 22 13 0 14 -3 4 -15z m490 -5 c12 -6 16 -17 13
-30 -8 -31 -27 -42 -47 -27 -14 10 -15 18 -7 40 12 30 14 31 41 17z m-586 -53
c11 -30 0 -49 -14 -27 -8 13 -10 12 -10 -2 0 -29 -17 -21 -29 14 -13 36 -8 46
14 28 13 -11 14 -10 9 5 -5 13 -3 16 7 13 8 -3 18 -17 23 -31z m665 24 c10 -6
10 -13 2 -29 -6 -11 -8 -28 -5 -36 3 -9 2 -16 -4 -16 -6 0 -12 5 -14 11 -2 6
-16 12 -31 12 -29 0 -37 21 -12 31 8 3 15 12 15 21 0 16 27 20 49 6z m-740
-28 c-1 -10 2 -28 6 -40 10 -33 -7 -28 -27 7 -16 28 -16 30 0 40 9 5 18 10 19
10 1 0 2 -8 2 -17z m805 1 c17 -7 22 -34 6 -34 -5 0 -10 5 -10 11 0 5 -4 7
-10 4 -15 -9 -12 -25 5 -25 19 0 19 -16 0 -24 -18 -7 -48 21 -39 37 10 16 26
37 29 37 2 0 10 -3 19 -6z m-836 -45 c10 -16 10 -24 1 -35 -16 -20 -36 -17
-49 7 -24 43 22 70 48 28z m890 12 c11 -6 8 -14 -11 -34 -29 -32 -39 -26 -24
14 12 31 15 33 35 20z m-938 -73 c0 -4 -5 -8 -11 -8 -6 0 -19 -10 -30 -22 -15
-19 -20 -20 -28 -9 -5 7 -14 10 -20 6 -14 -8 -43 13 -35 27 3 5 13 4 22 -4 12
-10 14 -10 8 0 -15 25 7 35 26 11 l18 -24 -9 26 c-14 40 6 55 36 27 13 -12 23
-25 23 -30z m984 46 c20 -7 20 -33 2 -57 -12 -15 -18 -16 -35 -7 -25 13 -25
14 -5 45 18 28 17 27 38 19z m60 -50 c14 -14 14 -17 0 -40 -19 -28 -27 -30
-44 -9 -11 13 -11 20 0 40 16 29 23 31 44 9z m-314 -150 c0 -8 -4 -14 -10 -14
-5 0 -10 9 -10 21 0 11 5 17 10 14 6 -3 10 -13 10 -21z m-553 -16 c-3 -8 -6
-5 -6 6 -1 11 2 17 5 13 3 -3 4 -12 1 -19z m233 -146 c0 -45 12 -102 21 -102
5 0 9 30 9 66 0 57 2 65 18 62 14 -3 18 -16 20 -66 2 -34 7 -62 11 -62 5 0 11
29 13 65 4 67 10 81 27 70 7 -4 11 -47 11 -109 0 -100 -1 -104 -25 -120 -21
-14 -25 -25 -25 -61 0 -43 -1 -45 -30 -45 -29 0 -30 2 -30 44 0 36 -5 47 -25
60 -24 16 -25 21 -25 120 0 56 3 106 6 109 12 12 24 -4 24 -31z m-258 -158
c-5 -40 -25 -41 -30 -2 -2 20 -7 25 -23 21 -18 -5 -18 -6 -3 -18 26 -19 8 -33
-41 -33 -44 0 -45 0 -45 33 l0 33 73 0 73 0 -4 -34z m578 1 c0 -19 -4 -35 -10
-35 -5 0 -10 9 -10 19 0 11 -3 26 -6 35 -4 11 -1 16 10 16 12 0 16 -10 16 -35z
m135 0 c0 -23 -5 -31 -22 -33 -13 -2 -23 1 -23 7 0 6 8 11 18 12 14 0 14 2 -3
8 -15 6 -22 3 -27 -10 -8 -20 -43 -26 -53 -9 -3 6 2 10 11 10 17 0 16 1 -1 13
-29 22 -9 36 48 34 51 -2 52 -3 52 -32z m65 25 c0 -21 -24 -60 -37 -60 -11 0
-11 5 2 30 13 26 14 29 0 24 -8 -4 -15 -1 -15 5 0 6 11 11 25 11 14 0 25 -4
25 -10z m-745 -50 c3 -5 1 -10 -4 -10 -6 0 -11 5 -11 10 0 6 2 10 4 10 3 0 8
-4 11 -10z m-388 -222 c13 -13 23 -33 23 -50 0 -25 -3 -28 -35 -28 -31 0 -35
3 -35 25 0 16 -6 25 -15 25 -13 0 -15 -13 -13 -77 2 -48 7 -78 15 -80 7 -3 13
9 15 29 3 29 6 33 33 33 27 0 30 -4 33 -34 4 -44 -26 -70 -82 -71 -65 0 -76
18 -76 123 0 108 11 127 73 127 28 0 48 -7 64 -22z m503 -24 c0 -53 11 -51 30
5 12 37 16 41 47 41 18 0 33 -2 33 -4 0 -2 -11 -29 -25 -59 l-26 -56 31 -60
c16 -33 30 -63 30 -66 0 -3 -16 -5 -35 -5 -33 0 -38 4 -58 48 l-22 47 -3 -47
c-3 -46 -5 -48 -33 -48 l-29 0 0 125 0 125 30 0 c29 0 30 -2 30 -46z m-368
-41 c21 -19 23 -44 6 -61 -9 -9 -9 -15 0 -24 7 -7 12 -21 12 -33 0 -32 -20
-45 -67 -45 l-43 0 0 90 0 90 37 0 c20 0 45 -7 55 -17z m130 0 c14 -12 18 -31
18 -78 0 -68 -10 -85 -51 -85 -54 0 -59 7 -59 82 0 56 4 74 18 84 23 18 52 17
74 -3z m148 -73 c0 -89 0 -90 -25 -90 -22 0 -25 5 -27 38 l-1 37 -4 -37 c-4
-33 -8 -38 -29 -38 -21 0 -24 5 -24 34 0 19 5 38 11 42 8 4 8 9 0 17 -34 34 4
87 61 87 l38 0 0 -90z m328 74 c19 -13 22 -24 22 -78 0 -69 -10 -86 -51 -86
-55 0 -59 6 -59 86 0 59 3 75 18 83 24 15 44 13 70 -5z m255 6 c9 0 17 -7 17
-15 0 -8 -9 -15 -20 -15 -13 0 -20 -7 -20 -20 0 -14 7 -20 23 -20 15 0 29 -9
38 -27 14 -26 14 -25 24 38 l10 64 35 0 34 0 12 -65 c18 -90 17 -110 -2 -110
-9 0 -23 8 -30 18 -13 16 -15 16 -25 0 -13 -22 -49 -24 -49 -2 0 14 -1 14 -16
0 -9 -10 -33 -16 -60 -16 l-44 0 0 83 c0 46 3 87 7 91 4 4 17 5 28 2 11 -3 28
-6 38 -6z m285 -6 c31 -21 29 -54 -3 -54 -16 0 -25 6 -25 15 0 8 -4 15 -10 15
-5 0 -10 -25 -10 -55 0 -30 5 -55 10 -55 6 0 10 9 10 20 0 15 7 20 25 20 19 0
25 -5 25 -23 0 -31 -18 -47 -53 -47 -56 0 -67 14 -67 85 0 55 3 66 22 79 12 9
29 16 38 16 9 0 26 -7 38 -16z m83 -21 l1 -38 14 32 c16 37 29 47 50 39 12 -5
12 -12 -6 -46 l-20 -40 20 -40 c25 -49 25 -50 -3 -50 -16 0 -28 10 -40 33
l-16 32 0 -32 c-1 -28 -5 -33 -26 -33 -25 0 -25 1 -25 83 0 89 3 97 32 97 14
0 18 -8 19 -37z m195 -18 c25 -116 25 -125 -2 -125 -15 0 -24 6 -24 15 0 8 -7
15 -15 15 -8 0 -15 -7 -15 -15 0 -9 -9 -15 -25 -15 -14 0 -25 1 -25 3 0 1 7
40 15 87 8 47 15 86 15 88 0 2 15 2 32 0 30 -3 33 -7 44 -53z m-656 -40 c0
-84 0 -85 -25 -85 -24 0 -25 2 -25 73 -1 82 -14 74 -25 -15 -6 -53 -9 -58 -31
-58 -13 0 -24 3 -24 8 0 31 23 139 32 149 6 7 30 13 54 13 l44 0 0 -85z m-735
-234 c3 -5 0 -13 -6 -17 -6 -3 -15 0 -20 7 -6 10 -8 5 -8 -16 0 -16 3 -24 6
-17 2 6 11 12 20 12 25 0 8 -25 -20 -28 -25 -3 -27 0 -27 32 0 31 3 36 24 36
14 0 27 -4 31 -9z m85 -13 c0 -13 3 -32 6 -43 4 -18 0 -20 -40 -20 l-46 0 6
35 c9 48 11 50 45 50 23 0 29 -4 29 -22z m60 12 c-13 -9 -13 -11 0 -20 10 -6
11 -10 3 -10 -7 0 -13 -4 -13 -10 0 -24 29 -8 32 18 2 21 9 28 31 30 24 3 27
0 28 -30 l1 -33 10 33 c13 38 43 43 52 10 10 -40 7 -44 -39 -46 -44 -2 -45 -1
-46 31 l-1 32 -10 -32 c-10 -30 -15 -33 -49 -33 -38 0 -39 1 -39 35 0 32 3 35
28 35 21 0 24 -2 12 -10z m191 -7 c1 -17 2 -17 6 0 7 25 33 21 34 -5 l2 -23 4
23 c9 44 53 22 53 -27 0 -26 -89 -29 -91 -4 -1 17 -2 17 -6 1 -8 -33 -33 -20
-33 17 0 24 5 35 15 35 8 0 16 -8 16 -17z m180 5 c0 -10 2 -10 6 0 11 27 33
12 33 -23 0 -32 -19 -52 -21 -22 0 10 -2 10 -6 0 -11 -28 -33 -13 -33 22 0 32
19 52 21 23z m104 -23 c0 -26 -4 -30 -30 -32 -16 -1 -22 1 -12 3 20 6 23 24 5
25 -10 0 -10 2 0 6 17 7 15 21 -5 27 -10 2 -5 4 12 3 25 -2 29 -6 30 -32z m86
18 c1 -17 2 -17 6 0 8 32 33 19 33 -18 0 -32 -19 -52 -21 -22 0 8 -2 8 -6 -2
-5 -11 -7 -11 -14 0 -6 10 -9 11 -9 2 0 -7 -4 -13 -10 -13 -5 0 -10 16 -10 35
0 24 5 35 15 35 8 0 16 -8 16 -17z m109 -18 c0 -35 -19 -51 -21 -17 -1 16 -2
16 -6 0 -8 -33 -31 -20 -28 15 2 17 3 33 4 35 1 1 12 2 26 2 22 0 25 -4 25
-35z m70 20 c0 -18 -16 -20 -23 -2 -3 6 -5 -1 -5 -18 0 -16 2 -24 5 -17 7 17
23 15 23 -4 0 -11 -8 -14 -27 -12 -28 3 -40 25 -29 54 7 19 56 19 56 -1z m66
-2 c-3 -8 -2 -23 4 -33 8 -16 5 -18 -25 -18 -33 0 -35 2 -35 33 0 31 2 34 30
33 22 -1 29 -5 26 -15z m74 5 c0 -7 3 -22 6 -34 5 -18 1 -21 -25 -21 -32 0
-39 15 -25 51 7 19 44 22 44 4z m-496 -172 c-3 -9 -12 -12 -22 -9 -15 6 -9 11
25 22 1 1 0 -5 -3 -13z m-119 -96 c-3 -5 -16 -15 -28 -21 -19 -9 -19 -8 3 10
28 23 34 26 25 11z m288 -61 c-10 -4 -20 -4 -23 -1 -3 2 1 7 8 9 10 4 10 8 0
21 -8 11 -5 10 10 -3 22 -18 22 -20 5 -26z"/>
<path d="M1131 2004 c0 -11 3 -14 6 -6 3 7 2 16 -1 19 -3 4 -6 -2 -5 -13z"/>
<path d="M847 1959 c4 -13 8 -18 11 -10 2 7 -1 18 -6 23 -8 8 -9 4 -5 -13z"/>
<path d="M1377 1971 c-4 -17 -3 -21 5 -13 5 5 8 16 6 23 -3 8 -7 3 -11 -10z"/>
<path d="M1446 1943 c-6 -14 -5 -15 5 -6 7 7 10 15 7 18 -3 3 -9 -2 -12 -12z"/>
<path d="M670 1902 c0 -4 4 -13 9 -20 7 -11 9 -11 14 1 3 9 -1 18 -9 21 -8 3
-14 2 -14 -2z"/>
<path d="M1679 1813 c-13 -16 -12 -17 4 -4 9 7 17 15 17 17 0 8 -8 3 -21 -13z"/>
<path d="M695 1368 c1 -13 5 -22 8 -20 4 1 14 2 22 2 12 0 11 4 -5 20 -25 25
-27 25 -25 -2z"/>
<path d="M540 1016 c0 -8 5 -18 10 -21 6 -3 10 3 10 14 0 12 -4 21 -10 21 -5
0 -10 -6 -10 -14z"/>
<path d="M540 940 c0 -11 5 -20 10 -20 6 0 10 9 10 20 0 11 -4 20 -10 20 -5 0
-10 -9 -10 -20z"/>
<path d="M670 975 c0 -30 5 -55 10 -55 6 0 10 25 10 55 0 30 -4 55 -10 55 -5
0 -10 -25 -10 -55z"/>
<path d="M812 1010 c0 -14 2 -19 5 -12 2 6 2 18 0 25 -3 6 -5 1 -5 -13z"/>
<path d="M1150 975 c0 -30 5 -55 10 -55 6 0 10 25 10 55 0 30 -4 55 -10 55 -5
0 -10 -25 -10 -55z"/>
<path d="M1557 993 c-11 -10 -8 -43 3 -43 6 0 10 11 10 25 0 26 -2 29 -13 18z"/>
<path d="M1430 940 c0 -11 5 -20 10 -20 6 0 10 9 10 20 0 11 -4 20 -10 20 -5
0 -10 -9 -10 -20z"/>
<path d="M1973 985 c0 -22 2 -30 4 -17 2 12 2 30 0 40 -3 9 -5 -1 -4 -23z"/>
<path d="M672 715 c0 -16 2 -22 5 -12 2 9 2 23 0 30 -3 6 -5 -1 -5 -18z"/>
</g>
</svg>
