<svg width="32" height="32" viewBox="0 0 32 32" fill="none" xmlns="http://www.w3.org/2000/svg">
<path opacity="0.1" fill-rule="evenodd" clip-rule="evenodd" d="M0 16C0 7.16344 7.16344 0 16 0C24.8366 0 32 7.16344 32 16C32 24.8366 24.8366 32 16 32C7.16344 32 0 24.8366 0 16Z" fill="white"/>
<path fill-rule="evenodd" clip-rule="evenodd" d="M7.41786 20.869L6 26L11.2867 24.6191C12.7438 25.4146 14.3814 25.8309 16.0458 25.8287C21.5347 25.8287 26 21.3827 26 15.919C26 13.2679 24.9675 10.7782 23.0838 8.90311C21.2001 7.02806 18.699 6 16.0358 6C10.5469 6 6.08104 10.4455 6.09151 15.919C6.08884 17.6553 6.54615 19.362 7.41786 20.869ZM11.8236 23.0162L11.5198 22.8346L11.5187 22.8351L8.36935 23.6619L9.21003 20.6175L9.01764 20.3045C8.18688 18.9945 7.75138 17.4723 7.75138 15.9196C7.75138 11.3835 11.468 7.68362 16.0353 7.68362C18.2431 7.68362 20.3291 8.55079 21.8897 10.1024C23.4493 11.6552 24.3098 13.7315 24.3098 15.9294C24.3098 20.4654 20.5932 24.1653 16.0364 24.1653C14.5532 24.1641 13.0978 23.7672 11.8236 23.0162ZM12.9978 11.3426C13.1698 11.3426 13.3727 11.3524 13.5546 11.7658C13.6759 12.0351 13.8726 12.5197 14.0362 12.923C14.1729 13.2599 14.2866 13.5401 14.3142 13.5907C14.3749 13.7113 14.4157 13.8629 14.3346 14.0238C14.3095 14.0681 14.2882 14.1087 14.268 14.1471C14.2149 14.2484 14.1695 14.3347 14.0816 14.4372C14.044 14.4809 14.0044 14.5286 13.9644 14.5768C13.8752 14.6841 13.7836 14.7943 13.7067 14.8708C13.575 14.9918 13.4537 15.1227 13.5954 15.3747C13.6019 15.385 13.609 15.3964 13.6167 15.4087C13.7903 15.6862 14.2752 16.4612 14.9824 17.0883C15.7952 17.811 16.4964 18.1081 16.8422 18.2545C16.9017 18.2797 16.9507 18.3005 16.9879 18.3182C17.231 18.4392 17.3826 18.4191 17.5243 18.2576C17.6764 18.0967 18.1522 17.5421 18.3142 17.2901C18.4763 17.048 18.6384 17.0883 18.871 17.169C19.0517 17.232 19.8216 17.6088 20.2769 17.8318C20.4094 17.8966 20.5152 17.9484 20.5722 17.9757C20.6371 18.0106 20.697 18.0405 20.7511 18.0676C20.8995 18.1418 21.0041 18.194 21.0485 18.268C21.1092 18.3689 21.1092 18.8728 20.9068 19.4471C20.6941 20.0323 19.6814 20.5766 19.226 20.6268C19.1867 20.6312 19.1476 20.6364 19.1077 20.6417C18.6843 20.6979 18.163 20.7672 16.2382 20.0121C13.8943 19.088 12.3487 16.8071 12.0362 16.346C12.0112 16.3091 11.9941 16.2838 11.9851 16.2719L11.9843 16.2707C11.8598 16.1055 10.9724 14.9285 10.9724 13.7118C10.9724 12.5667 11.5343 11.9722 11.7961 11.6952C11.8133 11.677 11.8291 11.6603 11.8435 11.6448C12.0761 11.3928 12.3495 11.3323 12.5116 11.3323C12.6836 11.3323 12.8457 11.3323 12.9978 11.3426Z" fill="white"/>
</svg>
