<svg width="32" height="32" viewBox="0 0 32 32" fill="none" xmlns="http://www.w3.org/2000/svg">
<path opacity="0.1" fill-rule="evenodd" clip-rule="evenodd" d="M0 16C0 7.16344 7.16344 0 16 0C24.8366 0 32 7.16344 32 16C32 24.8366 24.8366 32 16 32C7.16344 32 0 24.8366 0 16Z" fill="white"/>
<path d="M10.8699 17.8811L7.07303 16.644C7.07303 16.644 6.61926 16.4599 6.76538 16.0424C6.79546 15.9563 6.85613 15.8831 7.03764 15.7572C7.87893 15.1708 22.6093 9.87629 22.6093 9.87629C22.6093 9.87629 23.0252 9.73614 23.2705 9.82936C23.3312 9.84814 23.3858 9.88271 23.4287 9.92952C23.4716 9.97633 23.5014 10.0337 23.5149 10.0958C23.5414 10.2054 23.5524 10.3182 23.5478 10.4309C23.5466 10.5284 23.5348 10.6188 23.5259 10.7605C23.4362 12.208 20.7514 23.0114 20.7514 23.0114C20.7514 23.0114 20.5908 23.6436 20.0152 23.6652C19.8738 23.6698 19.7329 23.6459 19.6009 23.5948C19.469 23.5437 19.3486 23.4666 19.2471 23.3681C18.1177 22.3966 14.2142 19.7733 13.3517 19.1964C13.3322 19.1831 13.3158 19.1658 13.3036 19.1457C13.2914 19.1256 13.2837 19.1031 13.2809 19.0797C13.2688 19.0189 13.3349 18.9436 13.3349 18.9436C13.3349 18.9436 20.1319 12.9019 20.3128 12.2677C20.3268 12.2185 20.2739 12.1943 20.2028 12.2158C19.7514 12.3819 11.9255 17.324 11.0618 17.8694C10.9996 17.8882 10.9339 17.8922 10.8699 17.8811Z" fill="white"/>
</svg>
