<svg width="32" height="32" viewBox="0 0 32 32" fill="none" xmlns="http://www.w3.org/2000/svg">
<path opacity="0.1" fill-rule="evenodd" clip-rule="evenodd" d="M0 16C0 7.16344 7.16344 0 16 0C24.8366 0 32 7.16344 32 16C32 24.8366 24.8366 32 16 32C7.16344 32 0 24.8366 0 16Z" fill="white"/>
<path fill-rule="evenodd" clip-rule="evenodd" d="M22.6677 10.2329C23.4021 10.4344 23.9804 11.0282 24.1767 11.7822C24.5333 13.1487 24.5333 16 24.5333 16C24.5333 16 24.5333 18.8512 24.1767 20.2179C23.9804 20.9719 23.4021 21.5656 22.6677 21.7672C21.3369 22.1334 16 22.1334 16 22.1334C16 22.1334 10.6631 22.1334 9.33218 21.7672C8.59783 21.5656 8.0195 20.9719 7.82323 20.2179C7.46667 18.8512 7.46667 16 7.46667 16C7.46667 16 7.46667 13.1487 7.82323 11.7822C8.0195 11.0282 8.59783 10.4344 9.33218 10.2329C10.6631 9.8667 16 9.8667 16 9.8667C16 9.8667 21.3369 9.8667 22.6677 10.2329ZM14.4 13.6V18.9333L18.6667 16.2667L14.4 13.6Z" fill="white"/>
</svg>
