<svg width="32" height="32" viewBox="0 0 32 32" fill="none" xmlns="http://www.w3.org/2000/svg">
<path opacity="0.1" fill-rule="evenodd" clip-rule="evenodd" d="M0 16C0 7.16344 7.16344 0 16 0C24.8366 0 32 7.16344 32 16C32 24.8366 24.8366 32 16 32C7.16344 32 0 24.8366 0 16Z" fill="white"/>
<g clip-path="url(#clip0_609_301)">
<path fill-rule="evenodd" clip-rule="evenodd" d="M15.9905 16.2559C13.6965 16.2559 11.7914 14.4964 11.7914 12.4138C11.7914 10.2594 13.6965 8.5 15.9905 8.5C18.3622 8.5 20.1896 10.2594 20.1896 12.4138C20.1896 14.4964 18.3622 16.2559 15.9905 16.2559ZM15.9905 10.7621C15.0185 10.7621 14.2797 11.5162 14.2797 12.4138C14.2797 13.3115 15.0185 13.9937 15.9905 13.9937C17.0014 13.9937 17.7012 13.3115 17.7012 12.4138C17.7012 11.5162 17.0014 10.7621 15.9905 10.7621ZM17.6624 19.4516L20.0341 21.57C20.5006 22.0368 20.5006 22.719 20.0341 23.1499C19.5286 23.6167 18.751 23.6167 18.3622 23.1499L15.9905 20.9955L13.6965 23.1499C13.4633 23.3654 13.1522 23.4731 12.8023 23.4731C12.5301 23.4731 12.2191 23.3654 11.9469 23.1499C11.4803 22.719 11.4803 22.0368 11.9469 21.57L14.3575 19.4516C13.4633 19.2002 12.6468 18.877 11.8691 18.4461C11.2859 18.1589 11.1693 17.4408 11.4803 16.9022C11.8691 16.3635 12.569 16.2199 13.1911 16.579C14.9018 17.5485 17.0791 17.5485 18.7899 16.579C19.412 16.2199 20.1507 16.3635 20.5006 16.9022C20.8506 17.4408 20.695 18.1589 20.1507 18.4461C19.412 18.877 18.5566 19.2002 17.6624 19.4516Z" fill="white"/>
</g>
<defs>
<clipPath id="clip0_609_301">
<rect width="15" height="15" fill="white" transform="translate(8.5 8.5)"/>
</clipPath>
</defs>
</svg>
