<svg width="32" height="32" viewBox="0 0 32 32" fill="none" xmlns="http://www.w3.org/2000/svg">
<path opacity="0.1" fill-rule="evenodd" clip-rule="evenodd" d="M0 16C0 7.16344 7.16344 0 16 0C24.8366 0 32 7.16344 32 16C32 24.8366 24.8366 32 16 32C7.16344 32 0 24.8366 0 16Z" fill="white"/>
<path d="M16.6806 21C11.4743 21 8.50471 17.2462 8.38098 11H10.9889C11.0745 15.5846 12.9971 17.5265 14.52 17.9269V11H16.9756V14.954C18.4794 14.7838 20.0594 12.982 20.5924 11H23.048C22.8472 12.0279 22.4468 13.0012 21.872 13.8589C21.2971 14.7167 20.5602 15.4405 19.7072 15.985C20.6593 16.4825 21.5003 17.1868 22.1746 18.0512C22.8489 18.9157 23.3412 19.9207 23.6191 21H20.916C20.6666 20.0626 20.1596 19.2234 19.4587 18.5877C18.7577 17.952 17.8939 17.5481 16.9756 17.4264V21H16.6806Z" fill="white"/>
</svg>
